PathFileType	4	(X/Y/Z)	43_1_5_p0_0-209.trc
DataRate	CameraRate	NumFrames	NumMarkers	Units	OrigDataRate	OrigDataStartFrame	OrigNumFrames
60.0	60.0	4	27	m	60.0	0	210
Frame#	Time	RHip			RKnee			RAnkle			RBigToe			RSmallToe			RHeel			LHip			LKnee			LAnkle			LBigToe			LSmallToe			LHeel			Neck			Head			Nose			RShoulder			RElbow			RWrist			RThumb			RIndex			RPinky			LShoulder			LElbow			LWrist			LThumb			LIndex			LPinky			
		X1	Y1	Z1	X2	Y2	Z2	X3	Y3	Z3	X4	Y4	Z4	X5	Y5	Z5	X6	Y6	Z6	X7	Y7	Z7	X8	Y8	Z8	X9	Y9	Z9	X10	Y10	Z10	X11	Y11	Z11	X12	Y12	Z12	X13	Y13	Z13	X14	Y14	Z14	X15	Y15	Z15	X16	Y16	Z16	X17	Y17	Z17	X18	Y18	Z18	X19	Y19	Z19	X20	Y20	Z20	X21	Y21	Z21	X22	Y22	Z22	X23	Y23	Z23	X24	Y24	Z24	X25	Y25	Z25	X26	Y26	Z26	X27	Y27	Z27	
0	0.0	0.21348495311819748	0.504634151118847	1.1415932078824664	0.18625939338399852	0.5214573235450595	1.5880596022679376	0.13859659351137218	0.5478070712576061	1.9903454042182858	0.1355774540280398	0.3625584548953482	1.9909223478561646	0.1950014071312432	0.38665863284036767	2.004103716424794	0.09449206588462786	0.6368514184793893	2.068898100140193	0.009569686513278396	0.4924361132174766	1.143888976574718	-0.0249467856322737	0.5180645903106601	1.5753094075413745	-0.04039621119216236	0.5180870189155222	1.9741347766355597	-0.009638451768026442	0.3619545197377796	1.9765298156788835	-0.07002540346113742	0.40232776881503607	1.9914965896145587	-0.03646551576211535	0.5564774034880146	2.035762203846743	0.15029741839568184	0.5006936783654262	0.5693347176083109	0.1738269767162303	0.452925404123894	0.31966764427950256	0.16773578401571712	0.4033476760639668	0.45418117766435423	0.2919963009875983	0.48801110353207644	0.6652911915934991	0.30410776115125665	0.44768039078873806	0.9392335513772275	0.19220086745039547	0.28133518687080167	1.1207379170369256	0.10769359870021189	0.24033365200431184	1.216351498842209	0.10398974885968808	0.274117972351311	1.2373751678337779	0.11919725540080564	0.3162469983051649	1.2547383141650268	-0.0002492008251583933	0.4923392363464768	0.6420543289691287	-0.02919940249604705	0.4118887225722606	0.9009994539894199	0.06637044958809059	0.2925922437228359	1.1246824931194648	0.13344342245912189	0.2538082172911907	1.189199954968051	0.12103937731772131	0.23976197821565592	1.2189342010949555	0.10092493180736554	0.25148668434757615	1.2252346657622737
1	0.016666666666666666	0.21348106984494758	0.5045661563294811	1.1416952052436113	0.18828718764089533	0.5334603305772294	1.5981108477009152	0.13813481375210007	0.5480602257288224	1.9904923883976113	0.13553358290583617	0.36252927789941414	1.9909627074982799	0.19492196671234088	0.3867699368289175	2.0042255359341	0.09571283280886392	0.635396525203043	2.0627563398496305	0.01624976796527273	0.4679333795508927	1.135824957147928	-0.023694300127512214	0.5184005499799921	1.5710970726398665	-0.038800720585905064	0.5197883633819561	1.9756718843439423	-0.009509071518438227	0.36161802140954136	1.976264899483877	-0.06996411046060241	0.4022906552595145	1.991493584471431	-0.03498636404178215	0.5564734133698489	2.030987070164259	0.15034079048246793	0.500823200296636	0.5692521448624411	0.17376894648267854	0.4530195293432294	0.3196848260517284	0.16777478794333428	0.40329711887156705	0.4541483872139639	0.2919483436352863	0.48807534317586304	0.6652662598433025	0.2981139811256731	0.4603227023974704	0.9426332944751906	0.19145127106036175	0.28122512612496037	1.1240652887371465	0.10750141076020799	0.2406719225107848	1.2168432253230252	0.10493102023742047	0.2850945658475451	1.2418791795983115	0.11921831110966274	0.31606739920338056	1.2517845951986477	-0.00012636114154315983	0.4928307270808667	0.6421190434669574	-0.029313075978951903	0.4118375277455166	0.9007948872055684	0.061930451417904736	0.2903779901035037	1.1238354108706112	0.1324368845591099	0.25421599920459437	1.1930960130553603	0.11988737089390691	0.24087053717031578	1.219422573306369	0.10070862658787987	0.2514360971322204	1.2249108009554992
2	0.03333333333333333	0.21371720928854904	0.505955426517184	1.1461197249621706	0.1891506154372121	0.5331992984868573	1.6071837194839615	0.13827531607022633	0.5480471013779402	1.9905455546741595	0.13566443238135845	0.36238697057270547	1.9907388316305072	0.19501682428513725	0.386648941589535	2.0041211302459643	0.0957483290826191	0.6357565112464308	2.0630161126373077	0.009667066781335783	0.4926223574338215	1.1440984457104737	-0.02365846882739097	0.518272871286916	1.571203400383915	-0.04035717227071018	0.5179939379775331	1.9741783564995588	-0.0024588349955908507	0.34986289391034175	1.9681632873733366	-0.0699229021602747	0.40218003669332836	1.9915040513748201	-0.035866861171068014	0.5547955428509271	2.0409546489544272	0.15032250950768297	0.5008205687657005	0.5692418420855544	0.17372997398723045	0.45282630901159054	0.3198492344030397	0.1691005891389999	0.41347938579895255	0.4551979404027013	0.29195695350820233	0.4881529194791371	0.6652749310825108	0.2982359631739564	0.46040765741428047	0.9425486802414503	0.192080912059784	0.2816325735398668	1.1207767729310782	0.10106796332958436	0.25090760119649214	1.2206175215658366	0.10368513961325608	0.2745498476957437	1.2376579087918724	0.11918705282004988	0.31623894703692584	1.251937308300601	-0.0001637563958004126	0.492990929661519	0.6421222829441823	-0.029337263943023283	0.4119396202967085	0.9008422430143564	0.05925175375693765	0.30469364563295426	1.125090660746427	0.1258606456106873	0.2654481268626026	1.1973644286968683	0.11339385249591381	0.25147372071099117	1.2238587864213855	0.10069960962832662	0.25147149858978673	1.2248106607972364
3	0.05	0.213702080144136	0.5058841993193507	1.1461738286263958	0.1890560890191112	0.5330568248424156	1.6072824584420948	0.1383101886893183	0.5479191873203136	1.9905481345369547	0.13608312036204964	0.36411859085773396	1.9957076643464122	0.19504301082281622	0.3867616726837037	2.0041765773711044	0.09431334449264292	0.6347994397317633	2.0677398383595835	0.008795839847453944	0.48069109012520256	1.1403831477476207	-0.024854061873761175	0.5181465944981796	1.5756874955036853	-0.04028946073539235	0.5199882279761926	1.9802932916741394	-0.009701521887975665	0.3623305501778765	1.9767475872407363	-0.06998177568335834	0.4023106251376229	1.9916098579200876	-0.035901799749599485	0.5547247947158613	2.0411748209872953	0.1503781838722448	0.5007485863555589	0.5692343519285613	0.1736178616785212	0.45215129818185695	0.3230698184783041	0.16925415559504026	0.414247687329311	0.4518430727795512	0.29203395411344646	0.48813412742872603	0.6653112117824295	0.2981574344038715	0.4604072602808949	0.9426754476523262	0.19239283068907356	0.28046316686605255	1.1244563280893045	0.10088827859273915	0.25124210264951174	1.2205451509529561	0.10448754020343233	0.28613309706894535	1.2419823992249128	0.11947483432501216	0.315810895283273	1.2521133002114395	-0.00017076287103954692	0.49317357273557355	0.6421155841105526	-0.029412175040153164	0.41194999082622996	0.9006465933211079	0.055359546774753694	0.3019906290326762	1.1164492252963891	0.12547170721396209	0.266562444350304	1.1940945369199394	0.11313194190963709	0.25152025567282343	1.2240936656291777	0.09434042700115645	0.2619576232495692	1.228918786669361
